<mxfile host="app.diagrams.net" modified="2024-03-12T18:08:05.401Z" agent="Mozilla/5.0 (Windows NT 10.0; Win64; x64) AppleWebKit/537.36 (KHTML, like Gecko) Chrome/121.0.0.0 Safari/537.36 OPR/107.0.0.0" etag="0OKN_bT1vpfmVaOZkdli" version="24.0.4" type="github">
  <diagram name="Página-1" id="sJx23WTXUhjH9rJ30OEy">
    <mxGraphModel dx="2268" dy="819" grid="1" gridSize="10" guides="1" tooltips="1" connect="1" arrows="1" fold="1" page="1" pageScale="1" pageWidth="827" pageHeight="1169" math="0" shadow="0">
      <root>
        <mxCell id="0" />
        <mxCell id="1" parent="0" />
        <mxCell id="_VkXrqf1TB81czhssNhH-1" value="Transportadora" style="whiteSpace=wrap;html=1;align=center;" parent="1" vertex="1">
          <mxGeometry x="-175" y="125" width="100" height="40" as="geometry" />
        </mxCell>
        <mxCell id="_VkXrqf1TB81czhssNhH-2" value="CNPJ" style="ellipse;whiteSpace=wrap;html=1;align=center;fontStyle=4;" parent="1" vertex="1">
          <mxGeometry x="-235" y="55" width="100" height="40" as="geometry" />
        </mxCell>
        <mxCell id="_VkXrqf1TB81czhssNhH-3" value="Nome" style="ellipse;whiteSpace=wrap;html=1;align=center;" parent="1" vertex="1">
          <mxGeometry x="-105" y="55" width="100" height="40" as="geometry" />
        </mxCell>
        <mxCell id="_VkXrqf1TB81czhssNhH-4" value="" style="endArrow=none;html=1;rounded=0;exitX=0.25;exitY=0;exitDx=0;exitDy=0;entryX=0.5;entryY=1;entryDx=0;entryDy=0;" parent="1" source="_VkXrqf1TB81czhssNhH-1" target="_VkXrqf1TB81czhssNhH-2" edge="1">
          <mxGeometry relative="1" as="geometry">
            <mxPoint x="-45" y="185" as="sourcePoint" />
            <mxPoint x="115" y="185" as="targetPoint" />
          </mxGeometry>
        </mxCell>
        <mxCell id="_VkXrqf1TB81czhssNhH-5" value="" style="endArrow=none;html=1;rounded=0;" parent="1" target="_VkXrqf1TB81czhssNhH-3" edge="1">
          <mxGeometry relative="1" as="geometry">
            <mxPoint x="-125" y="125" as="sourcePoint" />
            <mxPoint x="-175" y="105" as="targetPoint" />
          </mxGeometry>
        </mxCell>
        <mxCell id="_VkXrqf1TB81czhssNhH-6" value="Possui" style="shape=rhombus;perimeter=rhombusPerimeter;whiteSpace=wrap;html=1;align=center;" parent="1" vertex="1">
          <mxGeometry x="140" y="115" width="120" height="60" as="geometry" />
        </mxCell>
        <mxCell id="_VkXrqf1TB81czhssNhH-7" value="Ônibus" style="whiteSpace=wrap;html=1;align=center;" parent="1" vertex="1">
          <mxGeometry x="580" y="130" width="100" height="40" as="geometry" />
        </mxCell>
        <mxCell id="_VkXrqf1TB81czhssNhH-9" value="Placa" style="ellipse;whiteSpace=wrap;html=1;align=center;" parent="1" vertex="1">
          <mxGeometry x="480" y="40" width="100" height="40" as="geometry" />
        </mxCell>
        <mxCell id="_VkXrqf1TB81czhssNhH-10" value="Modelo" style="ellipse;whiteSpace=wrap;html=1;align=center;" parent="1" vertex="1">
          <mxGeometry x="580" y="10" width="100" height="40" as="geometry" />
        </mxCell>
        <mxCell id="_VkXrqf1TB81czhssNhH-11" value="Ano_fabricação" style="ellipse;whiteSpace=wrap;html=1;align=center;" parent="1" vertex="1">
          <mxGeometry x="680" y="40" width="100" height="40" as="geometry" />
        </mxCell>
        <mxCell id="_VkXrqf1TB81czhssNhH-12" value="Capacidade" style="ellipse;whiteSpace=wrap;html=1;align=center;" parent="1" vertex="1">
          <mxGeometry x="690" y="90" width="100" height="40" as="geometry" />
        </mxCell>
        <mxCell id="_VkXrqf1TB81czhssNhH-13" value="Chassi" style="ellipse;whiteSpace=wrap;html=1;align=center;fontStyle=4;" parent="1" vertex="1">
          <mxGeometry x="480" y="90" width="100" height="40" as="geometry" />
        </mxCell>
        <mxCell id="_VkXrqf1TB81czhssNhH-14" value="" style="endArrow=none;html=1;rounded=0;exitX=1;exitY=0.5;exitDx=0;exitDy=0;entryX=0;entryY=0.5;entryDx=0;entryDy=0;" parent="1" source="_VkXrqf1TB81czhssNhH-1" target="_VkXrqf1TB81czhssNhH-6" edge="1">
          <mxGeometry relative="1" as="geometry">
            <mxPoint x="310" y="330" as="sourcePoint" />
            <mxPoint x="470" y="330" as="targetPoint" />
          </mxGeometry>
        </mxCell>
        <mxCell id="_VkXrqf1TB81czhssNhH-16" value="" style="endArrow=none;html=1;rounded=0;exitX=1;exitY=0.5;exitDx=0;exitDy=0;entryX=0;entryY=0.5;entryDx=0;entryDy=0;" parent="1" source="_VkXrqf1TB81czhssNhH-6" edge="1">
          <mxGeometry relative="1" as="geometry">
            <mxPoint x="440" y="149.38" as="sourcePoint" />
            <mxPoint x="580" y="149.38" as="targetPoint" />
          </mxGeometry>
        </mxCell>
        <mxCell id="_VkXrqf1TB81czhssNhH-17" value="" style="endArrow=none;html=1;rounded=0;exitX=1;exitY=0.5;exitDx=0;exitDy=0;entryX=0;entryY=0.5;entryDx=0;entryDy=0;" parent="1" source="_VkXrqf1TB81czhssNhH-13" edge="1">
          <mxGeometry relative="1" as="geometry">
            <mxPoint x="450" y="128.75" as="sourcePoint" />
            <mxPoint x="590" y="128.75" as="targetPoint" />
          </mxGeometry>
        </mxCell>
        <mxCell id="_VkXrqf1TB81czhssNhH-19" value="" style="endArrow=none;html=1;rounded=0;entryX=1;entryY=0.5;entryDx=0;entryDy=0;exitX=0.25;exitY=0;exitDx=0;exitDy=0;" parent="1" source="_VkXrqf1TB81czhssNhH-7" target="_VkXrqf1TB81czhssNhH-9" edge="1">
          <mxGeometry relative="1" as="geometry">
            <mxPoint x="140" y="140" as="sourcePoint" />
            <mxPoint x="186" y="107" as="targetPoint" />
          </mxGeometry>
        </mxCell>
        <mxCell id="_VkXrqf1TB81czhssNhH-20" value="" style="endArrow=none;html=1;rounded=0;entryX=0.5;entryY=1;entryDx=0;entryDy=0;exitX=0.5;exitY=0;exitDx=0;exitDy=0;" parent="1" source="_VkXrqf1TB81czhssNhH-7" target="_VkXrqf1TB81czhssNhH-10" edge="1">
          <mxGeometry relative="1" as="geometry">
            <mxPoint x="615" y="140" as="sourcePoint" />
            <mxPoint x="590" y="70" as="targetPoint" />
          </mxGeometry>
        </mxCell>
        <mxCell id="_VkXrqf1TB81czhssNhH-21" value="" style="endArrow=none;html=1;rounded=0;entryX=0;entryY=0.5;entryDx=0;entryDy=0;" parent="1" target="_VkXrqf1TB81czhssNhH-11" edge="1">
          <mxGeometry relative="1" as="geometry">
            <mxPoint x="650" y="130" as="sourcePoint" />
            <mxPoint x="640" y="60" as="targetPoint" />
          </mxGeometry>
        </mxCell>
        <mxCell id="_VkXrqf1TB81czhssNhH-22" value="" style="endArrow=none;html=1;rounded=0;entryX=0;entryY=0.5;entryDx=0;entryDy=0;exitX=1;exitY=0;exitDx=0;exitDy=0;" parent="1" source="_VkXrqf1TB81czhssNhH-7" target="_VkXrqf1TB81czhssNhH-12" edge="1">
          <mxGeometry relative="1" as="geometry">
            <mxPoint x="650" y="150" as="sourcePoint" />
            <mxPoint x="650" y="70" as="targetPoint" />
          </mxGeometry>
        </mxCell>
        <mxCell id="_VkXrqf1TB81czhssNhH-24" value="Funcionário" style="whiteSpace=wrap;html=1;align=center;" parent="1" vertex="1">
          <mxGeometry x="-170" y="629" width="100" height="40" as="geometry" />
        </mxCell>
        <mxCell id="_VkXrqf1TB81czhssNhH-25" value="Nome" style="ellipse;whiteSpace=wrap;html=1;align=center;" parent="1" vertex="1">
          <mxGeometry x="-50" y="759" width="100" height="40" as="geometry" />
        </mxCell>
        <mxCell id="_VkXrqf1TB81czhssNhH-26" value="CPF" style="ellipse;whiteSpace=wrap;html=1;align=center;fontStyle=4;" parent="1" vertex="1">
          <mxGeometry x="-260" y="759" width="100" height="40" as="geometry" />
        </mxCell>
        <mxCell id="_VkXrqf1TB81czhssNhH-27" value="" style="endArrow=none;html=1;rounded=0;entryX=0.5;entryY=0;entryDx=0;entryDy=0;exitX=1;exitY=1;exitDx=0;exitDy=0;" parent="1" source="_VkXrqf1TB81czhssNhH-24" target="_VkXrqf1TB81czhssNhH-25" edge="1">
          <mxGeometry relative="1" as="geometry">
            <mxPoint x="142" y="414" as="sourcePoint" />
            <mxPoint x="188" y="381" as="targetPoint" />
          </mxGeometry>
        </mxCell>
        <mxCell id="_VkXrqf1TB81czhssNhH-28" value="" style="endArrow=none;html=1;rounded=0;exitX=0;exitY=1;exitDx=0;exitDy=0;" parent="1" source="_VkXrqf1TB81czhssNhH-24" edge="1">
          <mxGeometry relative="1" as="geometry">
            <mxPoint x="167" y="634" as="sourcePoint" />
            <mxPoint x="-210" y="760" as="targetPoint" />
          </mxGeometry>
        </mxCell>
        <mxCell id="_VkXrqf1TB81czhssNhH-29" value="" style="shape=link;html=1;rounded=0;exitX=1;exitY=0.5;exitDx=0;exitDy=0;" parent="1" source="_VkXrqf1TB81czhssNhH-24" edge="1">
          <mxGeometry relative="1" as="geometry">
            <mxPoint x="102" y="764" as="sourcePoint" />
            <mxPoint x="302" y="644" as="targetPoint" />
          </mxGeometry>
        </mxCell>
        <mxCell id="_VkXrqf1TB81czhssNhH-32" value="Motorista" style="whiteSpace=wrap;html=1;align=center;" parent="1" vertex="1">
          <mxGeometry x="382" y="534" width="100" height="40" as="geometry" />
        </mxCell>
        <mxCell id="_VkXrqf1TB81czhssNhH-33" value="" style="ellipse;whiteSpace=wrap;html=1;aspect=fixed;" parent="1" vertex="1">
          <mxGeometry x="302" y="619" width="50" height="50" as="geometry" />
        </mxCell>
        <mxCell id="_VkXrqf1TB81czhssNhH-34" value="&lt;font style=&quot;font-size: 18px;&quot;&gt;d&lt;/font&gt;" style="text;html=1;align=center;verticalAlign=middle;whiteSpace=wrap;rounded=0;" parent="1" vertex="1">
          <mxGeometry x="297" y="619" width="60" height="50" as="geometry" />
        </mxCell>
        <mxCell id="_VkXrqf1TB81czhssNhH-35" value="Cobrador" style="whiteSpace=wrap;html=1;align=center;" parent="1" vertex="1">
          <mxGeometry x="492" y="609" width="100" height="40" as="geometry" />
        </mxCell>
        <mxCell id="_VkXrqf1TB81czhssNhH-36" value="Mecânico" style="whiteSpace=wrap;html=1;align=center;" parent="1" vertex="1">
          <mxGeometry x="30" y="404" width="100" height="40" as="geometry" />
        </mxCell>
        <mxCell id="_VkXrqf1TB81czhssNhH-37" value="Funcionário_&lt;br&gt;administrativo" style="whiteSpace=wrap;html=1;align=center;" parent="1" vertex="1">
          <mxGeometry x="432" y="690" width="100" height="40" as="geometry" />
        </mxCell>
        <mxCell id="_VkXrqf1TB81czhssNhH-39" value="" style="shape=requiredInterface;html=1;verticalLabelPosition=bottom;sketch=0;rotation=-130;direction=south;" parent="1" vertex="1">
          <mxGeometry x="352" y="584" width="20" height="10" as="geometry" />
        </mxCell>
        <mxCell id="_VkXrqf1TB81czhssNhH-41" value="" style="endArrow=none;html=1;rounded=0;entryX=0;entryY=1;entryDx=0;entryDy=0;exitX=0.5;exitY=0;exitDx=0;exitDy=0;" parent="1" source="_VkXrqf1TB81czhssNhH-34" target="_VkXrqf1TB81czhssNhH-32" edge="1">
          <mxGeometry relative="1" as="geometry">
            <mxPoint x="92" y="634" as="sourcePoint" />
            <mxPoint x="41" y="583" as="targetPoint" />
          </mxGeometry>
        </mxCell>
        <mxCell id="_VkXrqf1TB81czhssNhH-48" value="" style="endArrow=none;html=1;rounded=0;entryX=0.009;entryY=0.377;entryDx=0;entryDy=0;entryPerimeter=0;" parent="1" target="_VkXrqf1TB81czhssNhH-35" edge="1">
          <mxGeometry relative="1" as="geometry">
            <mxPoint x="352" y="634" as="sourcePoint" />
            <mxPoint x="492" y="604" as="targetPoint" />
          </mxGeometry>
        </mxCell>
        <mxCell id="_VkXrqf1TB81czhssNhH-46" value="" style="shape=requiredInterface;html=1;verticalLabelPosition=bottom;sketch=0;rotation=-105;direction=south;" parent="1" vertex="1">
          <mxGeometry x="427" y="623" width="20" height="10" as="geometry" />
        </mxCell>
        <mxCell id="_VkXrqf1TB81czhssNhH-50" value="" style="endArrow=none;html=1;rounded=0;entryX=0.5;entryY=1;entryDx=0;entryDy=0;" parent="1" target="_VkXrqf1TB81czhssNhH-36" edge="1">
          <mxGeometry relative="1" as="geometry">
            <mxPoint x="309" y="627.7085020242914" as="sourcePoint" />
            <mxPoint x="92" y="452" as="targetPoint" />
          </mxGeometry>
        </mxCell>
        <mxCell id="_VkXrqf1TB81czhssNhH-52" value="" style="endArrow=none;html=1;rounded=0;entryX=0;entryY=0;entryDx=0;entryDy=0;exitX=0.75;exitY=1;exitDx=0;exitDy=0;" parent="1" target="_VkXrqf1TB81czhssNhH-37" edge="1">
          <mxGeometry relative="1" as="geometry">
            <mxPoint x="339" y="666.0000000000001" as="sourcePoint" />
            <mxPoint x="356.5" y="688.6698729810777" as="targetPoint" />
          </mxGeometry>
        </mxCell>
        <mxCell id="_VkXrqf1TB81czhssNhH-51" value="" style="shape=requiredInterface;html=1;verticalLabelPosition=bottom;sketch=0;rotation=-60;direction=south;" parent="1" vertex="1">
          <mxGeometry x="379" y="675" width="20" height="10" as="geometry" />
        </mxCell>
        <mxCell id="_VkXrqf1TB81czhssNhH-56" value="Número_armário" style="ellipse;whiteSpace=wrap;html=1;align=center;" parent="1" vertex="1">
          <mxGeometry x="20" y="290" width="100" height="40" as="geometry" />
        </mxCell>
        <mxCell id="_VkXrqf1TB81czhssNhH-57" value="" style="endArrow=none;html=1;rounded=0;entryX=0.5;entryY=1;entryDx=0;entryDy=0;exitX=0.5;exitY=0;exitDx=0;exitDy=0;" parent="1" source="_VkXrqf1TB81czhssNhH-36" target="_VkXrqf1TB81czhssNhH-56" edge="1">
          <mxGeometry relative="1" as="geometry">
            <mxPoint x="592" y="674" as="sourcePoint" />
            <mxPoint x="642" y="674" as="targetPoint" />
          </mxGeometry>
        </mxCell>
        <mxCell id="_VkXrqf1TB81czhssNhH-58" value="Data_contratação" style="ellipse;whiteSpace=wrap;html=1;align=center;" parent="1" vertex="1">
          <mxGeometry x="380" y="770" width="100" height="40" as="geometry" />
        </mxCell>
        <mxCell id="_VkXrqf1TB81czhssNhH-59" value="Tempo_de_&lt;br&gt;empresa" style="ellipse;whiteSpace=wrap;html=1;align=center;dashed=1;" parent="1" vertex="1">
          <mxGeometry x="510" y="770" width="100" height="40" as="geometry" />
        </mxCell>
        <mxCell id="_VkXrqf1TB81czhssNhH-60" value="" style="endArrow=none;html=1;rounded=0;" parent="1" source="_VkXrqf1TB81czhssNhH-58" edge="1">
          <mxGeometry relative="1" as="geometry">
            <mxPoint x="280" y="730" as="sourcePoint" />
            <mxPoint x="440" y="730" as="targetPoint" />
          </mxGeometry>
        </mxCell>
        <mxCell id="_VkXrqf1TB81czhssNhH-62" value="" style="endArrow=none;html=1;rounded=0;entryX=0.5;entryY=1;entryDx=0;entryDy=0;exitX=0;exitY=0;exitDx=0;exitDy=0;" parent="1" source="_VkXrqf1TB81czhssNhH-59" target="_VkXrqf1TB81czhssNhH-37" edge="1">
          <mxGeometry relative="1" as="geometry">
            <mxPoint x="443" y="780" as="sourcePoint" />
            <mxPoint x="450" y="740" as="targetPoint" />
          </mxGeometry>
        </mxCell>
        <mxCell id="_VkXrqf1TB81czhssNhH-63" value="CNH" style="ellipse;whiteSpace=wrap;html=1;align=center;" parent="1" vertex="1">
          <mxGeometry x="250" y="504" width="100" height="40" as="geometry" />
        </mxCell>
        <mxCell id="_VkXrqf1TB81czhssNhH-64" value="Data_obtenção" style="ellipse;whiteSpace=wrap;html=1;align=center;" parent="1" vertex="1">
          <mxGeometry x="150" y="444" width="100" height="40" as="geometry" />
        </mxCell>
        <mxCell id="_VkXrqf1TB81czhssNhH-65" value="Validade" style="ellipse;whiteSpace=wrap;html=1;align=center;" parent="1" vertex="1">
          <mxGeometry x="257" y="444" width="100" height="40" as="geometry" />
        </mxCell>
        <mxCell id="_VkXrqf1TB81czhssNhH-66" value="" style="endArrow=none;html=1;rounded=0;entryX=0;entryY=0;entryDx=0;entryDy=0;exitX=0.5;exitY=1;exitDx=0;exitDy=0;" parent="1" source="_VkXrqf1TB81czhssNhH-64" target="_VkXrqf1TB81czhssNhH-63" edge="1">
          <mxGeometry relative="1" as="geometry">
            <mxPoint x="182" y="483.44" as="sourcePoint" />
            <mxPoint x="240" y="483.44" as="targetPoint" />
          </mxGeometry>
        </mxCell>
        <mxCell id="_VkXrqf1TB81czhssNhH-67" value="" style="endArrow=none;html=1;rounded=0;entryX=0.5;entryY=0;entryDx=0;entryDy=0;exitX=0.5;exitY=1;exitDx=0;exitDy=0;" parent="1" source="_VkXrqf1TB81czhssNhH-65" target="_VkXrqf1TB81czhssNhH-63" edge="1">
          <mxGeometry relative="1" as="geometry">
            <mxPoint x="262" y="464" as="sourcePoint" />
            <mxPoint x="295" y="480" as="targetPoint" />
          </mxGeometry>
        </mxCell>
        <mxCell id="_VkXrqf1TB81czhssNhH-68" value="" style="endArrow=none;html=1;rounded=0;entryX=0;entryY=0;entryDx=0;entryDy=0;exitX=1;exitY=0.5;exitDx=0;exitDy=0;" parent="1" source="_VkXrqf1TB81czhssNhH-63" target="_VkXrqf1TB81czhssNhH-32" edge="1">
          <mxGeometry relative="1" as="geometry">
            <mxPoint x="330" y="504" as="sourcePoint" />
            <mxPoint x="305" y="490" as="targetPoint" />
          </mxGeometry>
        </mxCell>
        <mxCell id="_VkXrqf1TB81czhssNhH-69" value="Categoria" style="ellipse;whiteSpace=wrap;html=1;align=center;" parent="1" vertex="1">
          <mxGeometry x="364" y="454" width="100" height="40" as="geometry" />
        </mxCell>
        <mxCell id="_VkXrqf1TB81czhssNhH-70" value="" style="endArrow=none;html=1;rounded=0;entryX=1;entryY=0;entryDx=0;entryDy=0;exitX=0;exitY=1;exitDx=0;exitDy=0;" parent="1" source="_VkXrqf1TB81czhssNhH-69" target="_VkXrqf1TB81czhssNhH-63" edge="1">
          <mxGeometry relative="1" as="geometry">
            <mxPoint x="317" y="494" as="sourcePoint" />
            <mxPoint x="310" y="514" as="targetPoint" />
          </mxGeometry>
        </mxCell>
        <mxCell id="_VkXrqf1TB81czhssNhH-71" value="Viagens_mês" style="ellipse;whiteSpace=wrap;html=1;align=center;" parent="1" vertex="1">
          <mxGeometry x="690" y="554" width="100" height="40" as="geometry" />
        </mxCell>
        <mxCell id="_VkXrqf1TB81czhssNhH-72" value="Número_armário" style="ellipse;whiteSpace=wrap;html=1;align=center;" parent="1" vertex="1">
          <mxGeometry x="690" y="619" width="100" height="40" as="geometry" />
        </mxCell>
        <mxCell id="_VkXrqf1TB81czhssNhH-73" value="" style="endArrow=none;html=1;rounded=0;entryX=0;entryY=0.5;entryDx=0;entryDy=0;exitX=1;exitY=0;exitDx=0;exitDy=0;" parent="1" source="_VkXrqf1TB81czhssNhH-35" target="_VkXrqf1TB81czhssNhH-71" edge="1">
          <mxGeometry relative="1" as="geometry">
            <mxPoint x="592" y="564" as="sourcePoint" />
            <mxPoint x="650" y="564" as="targetPoint" />
          </mxGeometry>
        </mxCell>
        <mxCell id="_VkXrqf1TB81czhssNhH-74" value="" style="endArrow=none;html=1;rounded=0;entryX=0;entryY=0.5;entryDx=0;entryDy=0;exitX=1;exitY=0.5;exitDx=0;exitDy=0;" parent="1" source="_VkXrqf1TB81czhssNhH-35" target="_VkXrqf1TB81czhssNhH-72" edge="1">
          <mxGeometry relative="1" as="geometry">
            <mxPoint x="610" y="603.44" as="sourcePoint" />
            <mxPoint x="668" y="603.44" as="targetPoint" />
          </mxGeometry>
        </mxCell>
        <mxCell id="_VkXrqf1TB81czhssNhH-75" value="VIagem" style="whiteSpace=wrap;html=1;align=center;" parent="1" vertex="1">
          <mxGeometry x="581" y="276" width="100" height="40" as="geometry" />
        </mxCell>
        <mxCell id="_VkXrqf1TB81czhssNhH-76" value="Realizada" style="shape=rhombus;perimeter=rhombusPerimeter;whiteSpace=wrap;html=1;align=center;" parent="1" vertex="1">
          <mxGeometry x="570" y="190" width="120" height="60" as="geometry" />
        </mxCell>
        <mxCell id="_VkXrqf1TB81czhssNhH-77" value="Dirige" style="shape=rhombus;perimeter=rhombusPerimeter;whiteSpace=wrap;html=1;align=center;" parent="1" vertex="1">
          <mxGeometry x="490" y="454" width="120" height="60" as="geometry" />
        </mxCell>
        <mxCell id="_VkXrqf1TB81czhssNhH-78" value="Cobra" style="shape=rhombus;perimeter=rhombusPerimeter;whiteSpace=wrap;html=1;align=center;" parent="1" vertex="1">
          <mxGeometry x="570" y="494" width="120" height="60" as="geometry" />
        </mxCell>
        <mxCell id="_VkXrqf1TB81czhssNhH-79" value="" style="endArrow=none;html=1;rounded=0;entryX=0.5;entryY=1;entryDx=0;entryDy=0;exitX=0.5;exitY=0;exitDx=0;exitDy=0;" parent="1" source="_VkXrqf1TB81czhssNhH-76" target="_VkXrqf1TB81czhssNhH-7" edge="1">
          <mxGeometry relative="1" as="geometry">
            <mxPoint x="640" y="140" as="sourcePoint" />
            <mxPoint x="640" y="60" as="targetPoint" />
          </mxGeometry>
        </mxCell>
        <mxCell id="_VkXrqf1TB81czhssNhH-80" value="" style="endArrow=none;html=1;rounded=0;entryX=0;entryY=1;entryDx=0;entryDy=0;exitX=1;exitY=0;exitDx=0;exitDy=0;" parent="1" source="_VkXrqf1TB81czhssNhH-32" target="_VkXrqf1TB81czhssNhH-77" edge="1">
          <mxGeometry relative="1" as="geometry">
            <mxPoint x="500" y="424" as="sourcePoint" />
            <mxPoint x="500" y="344" as="targetPoint" />
          </mxGeometry>
        </mxCell>
        <mxCell id="_VkXrqf1TB81czhssNhH-81" value="" style="endArrow=none;html=1;rounded=0;entryX=0.25;entryY=1;entryDx=0;entryDy=0;exitX=1;exitY=0;exitDx=0;exitDy=0;" parent="1" source="_VkXrqf1TB81czhssNhH-77" target="_VkXrqf1TB81czhssNhH-75" edge="1">
          <mxGeometry relative="1" as="geometry">
            <mxPoint x="492" y="544" as="sourcePoint" />
            <mxPoint x="606" y="420" as="targetPoint" />
          </mxGeometry>
        </mxCell>
        <mxCell id="_VkXrqf1TB81czhssNhH-82" value="" style="endArrow=none;html=1;rounded=0;entryX=0;entryY=1;entryDx=0;entryDy=0;exitX=0.5;exitY=0;exitDx=0;exitDy=0;" parent="1" source="_VkXrqf1TB81czhssNhH-35" target="_VkXrqf1TB81czhssNhH-78" edge="1">
          <mxGeometry relative="1" as="geometry">
            <mxPoint x="492" y="544" as="sourcePoint" />
            <mxPoint x="530" y="509" as="targetPoint" />
          </mxGeometry>
        </mxCell>
        <mxCell id="_VkXrqf1TB81czhssNhH-84" value="" style="endArrow=none;html=1;rounded=0;entryX=0.5;entryY=1;entryDx=0;entryDy=0;exitX=0.5;exitY=0;exitDx=0;exitDy=0;" parent="1" source="_VkXrqf1TB81czhssNhH-78" target="_VkXrqf1TB81czhssNhH-75" edge="1">
          <mxGeometry relative="1" as="geometry">
            <mxPoint x="579" y="472" as="sourcePoint" />
            <mxPoint x="631" y="420" as="targetPoint" />
          </mxGeometry>
        </mxCell>
        <mxCell id="_VkXrqf1TB81czhssNhH-85" value="" style="endArrow=none;html=1;rounded=0;entryX=0.5;entryY=1;entryDx=0;entryDy=0;exitX=0.5;exitY=0;exitDx=0;exitDy=0;" parent="1" source="_VkXrqf1TB81czhssNhH-75" target="_VkXrqf1TB81czhssNhH-76" edge="1">
          <mxGeometry relative="1" as="geometry">
            <mxPoint x="640" y="200" as="sourcePoint" />
            <mxPoint x="640" y="180" as="targetPoint" />
          </mxGeometry>
        </mxCell>
        <mxCell id="_VkXrqf1TB81czhssNhH-86" value="Data_partida" style="ellipse;whiteSpace=wrap;html=1;align=center;" parent="1" vertex="1">
          <mxGeometry x="720" y="180" width="100" height="40" as="geometry" />
        </mxCell>
        <mxCell id="_VkXrqf1TB81czhssNhH-87" value="Hora_partida" style="ellipse;whiteSpace=wrap;html=1;align=center;" parent="1" vertex="1">
          <mxGeometry x="827" y="190" width="100" height="40" as="geometry" />
        </mxCell>
        <mxCell id="_VkXrqf1TB81czhssNhH-88" value="Data_chegada" style="ellipse;whiteSpace=wrap;html=1;align=center;" parent="1" vertex="1">
          <mxGeometry x="910" y="230" width="100" height="40" as="geometry" />
        </mxCell>
        <mxCell id="_VkXrqf1TB81czhssNhH-89" value="Hora_chegada" style="ellipse;whiteSpace=wrap;html=1;align=center;" parent="1" vertex="1">
          <mxGeometry x="920" y="290" width="100" height="40" as="geometry" />
        </mxCell>
        <mxCell id="_VkXrqf1TB81czhssNhH-90" value="Duração_viagem" style="ellipse;whiteSpace=wrap;html=1;align=center;dashed=1;" parent="1" vertex="1">
          <mxGeometry x="900" y="340" width="100" height="40" as="geometry" />
        </mxCell>
        <mxCell id="_VkXrqf1TB81czhssNhH-91" value="Cidade_partida" style="ellipse;whiteSpace=wrap;html=1;align=center;" parent="1" vertex="1">
          <mxGeometry x="900" y="390" width="100" height="40" as="geometry" />
        </mxCell>
        <mxCell id="_VkXrqf1TB81czhssNhH-92" value="CIdade_destino" style="ellipse;whiteSpace=wrap;html=1;align=center;" parent="1" vertex="1">
          <mxGeometry x="850" y="440" width="100" height="40" as="geometry" />
        </mxCell>
        <mxCell id="_VkXrqf1TB81czhssNhH-93" value="Número_&lt;br&gt;passageiros" style="ellipse;whiteSpace=wrap;html=1;align=center;" parent="1" vertex="1">
          <mxGeometry x="740" y="440" width="100" height="40" as="geometry" />
        </mxCell>
        <mxCell id="_VkXrqf1TB81czhssNhH-94" value="Id" style="ellipse;whiteSpace=wrap;html=1;align=center;fontStyle=4;" parent="1" vertex="1">
          <mxGeometry x="660" y="400" width="100" height="40" as="geometry" />
        </mxCell>
        <mxCell id="_VkXrqf1TB81czhssNhH-95" value="" style="endArrow=none;html=1;rounded=0;entryX=0;entryY=1;entryDx=0;entryDy=0;exitX=1;exitY=0;exitDx=0;exitDy=0;" parent="1" source="_VkXrqf1TB81czhssNhH-75" target="_VkXrqf1TB81czhssNhH-86" edge="1">
          <mxGeometry relative="1" as="geometry">
            <mxPoint x="641" y="286" as="sourcePoint" />
            <mxPoint x="640" y="260" as="targetPoint" />
          </mxGeometry>
        </mxCell>
        <mxCell id="_VkXrqf1TB81czhssNhH-96" value="" style="endArrow=none;html=1;rounded=0;entryX=0;entryY=1;entryDx=0;entryDy=0;exitX=1;exitY=0;exitDx=0;exitDy=0;" parent="1" source="_VkXrqf1TB81czhssNhH-75" target="_VkXrqf1TB81czhssNhH-87" edge="1">
          <mxGeometry relative="1" as="geometry">
            <mxPoint x="691" y="286" as="sourcePoint" />
            <mxPoint x="745" y="224" as="targetPoint" />
          </mxGeometry>
        </mxCell>
        <mxCell id="_VkXrqf1TB81czhssNhH-97" value="" style="endArrow=none;html=1;rounded=0;exitX=1;exitY=0.25;exitDx=0;exitDy=0;" parent="1" source="_VkXrqf1TB81czhssNhH-75" target="_VkXrqf1TB81czhssNhH-88" edge="1">
          <mxGeometry relative="1" as="geometry">
            <mxPoint x="691" y="286" as="sourcePoint" />
            <mxPoint x="852" y="234" as="targetPoint" />
          </mxGeometry>
        </mxCell>
        <mxCell id="_VkXrqf1TB81czhssNhH-98" value="" style="endArrow=none;html=1;rounded=0;exitX=1;exitY=0.5;exitDx=0;exitDy=0;entryX=0;entryY=0.5;entryDx=0;entryDy=0;" parent="1" source="_VkXrqf1TB81czhssNhH-75" target="_VkXrqf1TB81czhssNhH-89" edge="1">
          <mxGeometry relative="1" as="geometry">
            <mxPoint x="691" y="296" as="sourcePoint" />
            <mxPoint x="922" y="266" as="targetPoint" />
          </mxGeometry>
        </mxCell>
        <mxCell id="_VkXrqf1TB81czhssNhH-99" value="" style="endArrow=none;html=1;rounded=0;exitX=1;exitY=0.5;exitDx=0;exitDy=0;entryX=0;entryY=0.5;entryDx=0;entryDy=0;" parent="1" source="_VkXrqf1TB81czhssNhH-75" target="_VkXrqf1TB81czhssNhH-90" edge="1">
          <mxGeometry relative="1" as="geometry">
            <mxPoint x="691" y="306" as="sourcePoint" />
            <mxPoint x="930" y="320" as="targetPoint" />
          </mxGeometry>
        </mxCell>
        <mxCell id="_VkXrqf1TB81czhssNhH-100" value="" style="endArrow=none;html=1;rounded=0;exitX=1;exitY=0.5;exitDx=0;exitDy=0;" parent="1" source="_VkXrqf1TB81czhssNhH-75" target="_VkXrqf1TB81czhssNhH-91" edge="1">
          <mxGeometry relative="1" as="geometry">
            <mxPoint x="691" y="306" as="sourcePoint" />
            <mxPoint x="910" y="370" as="targetPoint" />
          </mxGeometry>
        </mxCell>
        <mxCell id="_VkXrqf1TB81czhssNhH-101" value="" style="endArrow=none;html=1;rounded=0;exitX=1;exitY=0.5;exitDx=0;exitDy=0;entryX=0;entryY=0;entryDx=0;entryDy=0;" parent="1" source="_VkXrqf1TB81czhssNhH-75" target="_VkXrqf1TB81czhssNhH-92" edge="1">
          <mxGeometry relative="1" as="geometry">
            <mxPoint x="691" y="306" as="sourcePoint" />
            <mxPoint x="926" y="405" as="targetPoint" />
          </mxGeometry>
        </mxCell>
        <mxCell id="_VkXrqf1TB81czhssNhH-102" value="" style="endArrow=none;html=1;rounded=0;exitX=1;exitY=0.75;exitDx=0;exitDy=0;entryX=0.5;entryY=0;entryDx=0;entryDy=0;" parent="1" source="_VkXrqf1TB81czhssNhH-75" target="_VkXrqf1TB81czhssNhH-93" edge="1">
          <mxGeometry relative="1" as="geometry">
            <mxPoint x="691" y="306" as="sourcePoint" />
            <mxPoint x="875" y="456" as="targetPoint" />
          </mxGeometry>
        </mxCell>
        <mxCell id="_VkXrqf1TB81czhssNhH-103" value="" style="endArrow=none;html=1;rounded=0;exitX=1;exitY=1;exitDx=0;exitDy=0;entryX=0.5;entryY=0;entryDx=0;entryDy=0;" parent="1" source="_VkXrqf1TB81czhssNhH-75" target="_VkXrqf1TB81czhssNhH-94" edge="1">
          <mxGeometry relative="1" as="geometry">
            <mxPoint x="691" y="316" as="sourcePoint" />
            <mxPoint x="800" y="450" as="targetPoint" />
          </mxGeometry>
        </mxCell>
        <mxCell id="_VkXrqf1TB81czhssNhH-49" value="" style="shape=requiredInterface;html=1;verticalLabelPosition=bottom;sketch=0;rotation=-223;direction=south;" parent="1" vertex="1">
          <mxGeometry x="189" y="535" width="20" height="10" as="geometry" />
        </mxCell>
        <mxCell id="_VkXrqf1TB81czhssNhH-106" value="Mantém" style="shape=rhombus;perimeter=rhombusPerimeter;whiteSpace=wrap;html=1;align=center;" parent="1" vertex="1">
          <mxGeometry x="279" y="280" width="120" height="60" as="geometry" />
        </mxCell>
        <mxCell id="_VkXrqf1TB81czhssNhH-107" value="" style="endArrow=none;html=1;rounded=0;entryX=0;entryY=1;entryDx=0;entryDy=0;exitX=1;exitY=0;exitDx=0;exitDy=0;" parent="1" source="_VkXrqf1TB81czhssNhH-106" target="_VkXrqf1TB81czhssNhH-7" edge="1">
          <mxGeometry relative="1" as="geometry">
            <mxPoint x="579" y="472" as="sourcePoint" />
            <mxPoint x="616" y="326" as="targetPoint" />
          </mxGeometry>
        </mxCell>
        <mxCell id="_VkXrqf1TB81czhssNhH-108" value="" style="endArrow=none;html=1;rounded=0;entryX=0;entryY=1;entryDx=0;entryDy=0;exitX=1;exitY=0;exitDx=0;exitDy=0;" parent="1" source="_VkXrqf1TB81czhssNhH-36" target="_VkXrqf1TB81czhssNhH-106" edge="1">
          <mxGeometry relative="1" as="geometry">
            <mxPoint x="379" y="305" as="sourcePoint" />
            <mxPoint x="590" y="180" as="targetPoint" />
          </mxGeometry>
        </mxCell>
        <mxCell id="_VkXrqf1TB81czhssNhH-109" value="Possui" style="shape=rhombus;perimeter=rhombusPerimeter;whiteSpace=wrap;html=1;align=center;" parent="1" vertex="1">
          <mxGeometry x="-185" y="340" width="120" height="60" as="geometry" />
        </mxCell>
        <mxCell id="_VkXrqf1TB81czhssNhH-110" value="" style="endArrow=none;html=1;rounded=0;exitX=0.5;exitY=1;exitDx=0;exitDy=0;entryX=0.5;entryY=0;entryDx=0;entryDy=0;" parent="1" source="_VkXrqf1TB81czhssNhH-1" target="_VkXrqf1TB81czhssNhH-109" edge="1">
          <mxGeometry relative="1" as="geometry">
            <mxPoint x="-65" y="155" as="sourcePoint" />
            <mxPoint x="150" y="155" as="targetPoint" />
          </mxGeometry>
        </mxCell>
        <mxCell id="_VkXrqf1TB81czhssNhH-111" value="" style="endArrow=none;html=1;rounded=0;exitX=0.5;exitY=0;exitDx=0;exitDy=0;entryX=0.5;entryY=1;entryDx=0;entryDy=0;" parent="1" source="_VkXrqf1TB81czhssNhH-24" target="_VkXrqf1TB81czhssNhH-109" edge="1">
          <mxGeometry relative="1" as="geometry">
            <mxPoint x="-115" y="175" as="sourcePoint" />
            <mxPoint x="-115" y="350" as="targetPoint" />
          </mxGeometry>
        </mxCell>
        <mxCell id="_VkXrqf1TB81czhssNhH-112" value="0,N" style="text;html=1;align=center;verticalAlign=middle;resizable=0;points=[];autosize=1;strokeColor=none;fillColor=none;" parent="1" vertex="1">
          <mxGeometry x="-154" y="598" width="40" height="30" as="geometry" />
        </mxCell>
        <mxCell id="_VkXrqf1TB81czhssNhH-113" value="1,1" style="text;html=1;align=center;verticalAlign=middle;resizable=0;points=[];autosize=1;strokeColor=none;fillColor=none;" parent="1" vertex="1">
          <mxGeometry x="-160" y="162" width="40" height="30" as="geometry" />
        </mxCell>
        <mxCell id="_VkXrqf1TB81czhssNhH-114" value="0,N" style="text;html=1;align=center;verticalAlign=middle;resizable=0;points=[];autosize=1;strokeColor=none;fillColor=none;" parent="1" vertex="1">
          <mxGeometry x="541" y="125" width="40" height="30" as="geometry" />
        </mxCell>
        <mxCell id="_VkXrqf1TB81czhssNhH-115" value="1,1" style="text;html=1;align=center;verticalAlign=middle;resizable=0;points=[];autosize=1;strokeColor=none;fillColor=none;" parent="1" vertex="1">
          <mxGeometry x="-78" y="119" width="40" height="30" as="geometry" />
        </mxCell>
        <mxCell id="_VkXrqf1TB81czhssNhH-116" value="0,N" style="text;html=1;align=center;verticalAlign=middle;resizable=0;points=[];autosize=1;strokeColor=none;fillColor=none;" parent="1" vertex="1">
          <mxGeometry x="540" y="158" width="40" height="30" as="geometry" />
        </mxCell>
        <mxCell id="_VkXrqf1TB81czhssNhH-117" value="1,1" style="text;html=1;align=center;verticalAlign=middle;resizable=0;points=[];autosize=1;strokeColor=none;fillColor=none;" parent="1" vertex="1">
          <mxGeometry x="120" y="368" width="40" height="30" as="geometry" />
        </mxCell>
        <mxCell id="_VkXrqf1TB81czhssNhH-119" value="0,N" style="text;html=1;align=center;verticalAlign=middle;resizable=0;points=[];autosize=1;strokeColor=none;fillColor=none;" parent="1" vertex="1">
          <mxGeometry x="600" y="248" width="40" height="30" as="geometry" />
        </mxCell>
        <mxCell id="_VkXrqf1TB81czhssNhH-120" value="1,1" style="text;html=1;align=center;verticalAlign=middle;resizable=0;points=[];autosize=1;strokeColor=none;fillColor=none;" parent="1" vertex="1">
          <mxGeometry x="598" y="164" width="40" height="30" as="geometry" />
        </mxCell>
        <mxCell id="_VkXrqf1TB81czhssNhH-121" value="1,1" style="text;html=1;align=center;verticalAlign=middle;resizable=0;points=[];autosize=1;strokeColor=none;fillColor=none;" parent="1" vertex="1">
          <mxGeometry x="560" y="318" width="40" height="30" as="geometry" />
        </mxCell>
        <mxCell id="_VkXrqf1TB81czhssNhH-122" value="1,1" style="text;html=1;align=center;verticalAlign=middle;resizable=0;points=[];autosize=1;strokeColor=none;fillColor=none;" parent="1" vertex="1">
          <mxGeometry x="600" y="318" width="40" height="30" as="geometry" />
        </mxCell>
        <mxCell id="_VkXrqf1TB81czhssNhH-123" value="1,1" style="text;html=1;align=center;verticalAlign=middle;resizable=0;points=[];autosize=1;strokeColor=none;fillColor=none;" parent="1" vertex="1">
          <mxGeometry x="450" y="508" width="40" height="30" as="geometry" />
        </mxCell>
        <mxCell id="_VkXrqf1TB81czhssNhH-124" value="1,1" style="text;html=1;align=center;verticalAlign=middle;resizable=0;points=[];autosize=1;strokeColor=none;fillColor=none;" parent="1" vertex="1">
          <mxGeometry x="516" y="586" width="40" height="30" as="geometry" />
        </mxCell>
      </root>
    </mxGraphModel>
  </diagram>
</mxfile>
